<?xml version="1.0" encoding="UTF-8" standalone="no"?>
<!-- Created with Inkscape (http://www.inkscape.org/) -->

<svg
   xmlns:dc="http://purl.org/dc/elements/1.1/"
   xmlns:cc="http://creativecommons.org/ns#"
   xmlns:rdf="http://www.w3.org/1999/02/22-rdf-syntax-ns#"
   xmlns:svg="http://www.w3.org/2000/svg"
   xmlns="http://www.w3.org/2000/svg"
   xmlns:sodipodi="http://sodipodi.sourceforge.net/DTD/sodipodi-0.dtd"
   xmlns:inkscape="http://www.inkscape.org/namespaces/inkscape"
   width="71mm"
   height="20mm"
   viewBox="0 0 71 20"
   version="1.1"
   id="svg1125"
   inkscape:version="0.92.2 (5c3e80d, 2017-08-06)"
   sodipodi:docname="UCL-Logo_Footer.svg">
  <defs
     id="defs1119" />
  <sodipodi:namedview
     id="base"
     pagecolor="#ffffff"
     bordercolor="#666666"
     borderopacity="1.0"
     inkscape:pageopacity="0.0"
     inkscape:pageshadow="2"
     inkscape:zoom="4.3867248"
     inkscape:cx="132.80185"
     inkscape:cy="37.314308"
     inkscape:document-units="mm"
     inkscape:current-layer="layer1"
     showgrid="false"
     inkscape:window-width="1920"
     inkscape:window-height="996"
     inkscape:window-x="0"
     inkscape:window-y="27"
     inkscape:window-maximized="1" />
  <metadata
     id="metadata1122">
    <rdf:RDF>
      <cc:Work
         rdf:about="">
        <dc:format>image/svg+xml</dc:format>
        <dc:type
           rdf:resource="http://purl.org/dc/dcmitype/StillImage" />
        <dc:title />
      </cc:Work>
    </rdf:RDF>
  </metadata>
  <g
     inkscape:label="Camada 1"
     inkscape:groupmode="layer"
     id="layer1"
     transform="translate(0,-277)">
    <g
       id="g5712"
       transform="matrix(1.1190932,0,0,1.1190932,-56.890391,104.80565)"
       inkscape:export-filename="/home/vitor/Final.png"
       inkscape:export-xdpi="1136.999"
       inkscape:export-ydpi="1136.999"
       style="stroke-width:0.89358062">
      <g
         id="g5353-2-7-6"
         transform="translate(53.748818,112.00515)"
         style="stroke-width:0.89358062">
        <g
           transform="translate(60.921427,-141.75523)"
           id="g5220-5-7-2"
           inkscape:export-xdpi="265"
           inkscape:export-ydpi="265"
           style="fill:#ffffff;fill-opacity:1;stroke-width:0.89358062">
          <path
             inkscape:connector-curvature="0"
             id="path5109-4-5-8"
             style="font-style:normal;font-variant:normal;font-weight:normal;font-stretch:normal;font-size:medium;line-height:1.25;font-family:Montserrat;-inkscape-font-specification:Montserrat;letter-spacing:0px;word-spacing:0px;fill:#ffffff;fill-opacity:1;stroke:none;stroke-width:0.23642653"
             d="m -21.315424,196.0389 h 4.931833 v -0.67733 h -4.148666 v -6.731 h -0.783167 z" />
          <path
             inkscape:connector-curvature="0"
             id="path5113-0-4-4"
             style="font-style:normal;font-variant:normal;font-weight:normal;font-stretch:normal;font-size:medium;line-height:1.25;font-family:Montserrat;-inkscape-font-specification:Montserrat;letter-spacing:0px;word-spacing:0px;fill:#ffffff;fill-opacity:1;stroke:none;stroke-width:0.23642653"
             d="m -6.076101,190.42974 c -0.8889999,0 -1.6509999,0.381 -2.116667,1.10066 v -3.34433 h -0.7514162 v 7.85283 h 0.7196662 v -1.10066 c 0.4550838,0.75141 1.2276671,1.15358 2.148417,1.15358 1.5875,0 2.7728333,-1.15358 2.7728333,-2.83633 0,-1.68275 -1.1853333,-2.82575 -2.7728333,-2.82575 z m -0.052917,4.99533 c -1.1853333,0 -2.074333,-0.86783 -2.074333,-2.16958 0,-1.30175 0.8889997,-2.16959 2.074333,-2.16959 1.1747499,0 2.0743332,0.86784 2.0743332,2.16959 0,1.30175 -0.8995833,2.16958 -2.0743332,2.16958 z" />
          <g
             id="g5166-5-8-7"
             transform="translate(-13.265016)"
             style="fill:#ffffff;fill-opacity:1;stroke-width:0.89358062">
            <path
               d="m 0.47962697,196.09182 c 1.62983333,0 2.82574993,-1.18533 2.82574993,-2.83633 0,-1.651 -1.1959166,-2.82575 -2.82574993,-2.82575 -1.62983327,0 -2.83633327,1.17475 -2.83633327,2.82575 0,1.651 1.2065,2.83633 2.83633327,2.83633 z m 0,-0.66675 c -1.18533329,0 -2.07433327,-0.86783 -2.07433327,-2.16958 0,-1.30175 0.88899998,-2.16959 2.07433327,-2.16959 1.18533333,0 2.06374993,0.86784 2.06374993,2.16959 0,1.30175 -0.8784166,2.16958 -2.06374993,2.16958 z"
               style="font-style:normal;font-variant:normal;font-weight:normal;font-stretch:normal;font-size:medium;line-height:1.25;font-family:Montserrat;-inkscape-font-specification:Montserrat;letter-spacing:0px;word-spacing:0px;fill:#ffffff;fill-opacity:1;stroke:none;stroke-width:0.23642653"
               id="path5115-9-1-2"
               inkscape:connector-curvature="0" />
            <path
               d="m 2.623709,196.0389 h 0.7514166 v -5.57916 H 2.623709 Z"
               style="font-style:normal;font-variant:normal;font-weight:normal;font-stretch:normal;font-size:medium;line-height:1.25;font-family:Montserrat;-inkscape-font-specification:Montserrat;letter-spacing:0px;word-spacing:0px;fill:#ffffff;fill-opacity:1;stroke:none;stroke-width:0.19928178"
               id="path5117-4-2-4"
               inkscape:connector-curvature="0" />
          </g>
        </g>
        <g
           transform="translate(79.423501,-141.75522)"
           id="g5124-9-6-8-0"
           inkscape:export-xdpi="265"
           inkscape:export-ydpi="265"
           style="stroke-width:0.89358062">
          <path
             inkscape:connector-curvature="0"
             id="path5073-7-9-9-6"
             style="font-style:normal;font-variant:normal;font-weight:500;font-stretch:normal;font-size:medium;line-height:1.25;font-family:Montserrat;-inkscape-font-specification:'Montserrat Medium';letter-spacing:0px;word-spacing:0px;fill:#ff7825;fill-opacity:1;stroke:none;stroke-width:0.23642653"
             d="m -64.253419,196.12357 c 1.153583,0 2.148416,-0.40217 2.82575,-1.16417 l -0.687917,-0.66675 c -0.5715,0.60325 -1.27,0.889 -2.084917,0.889 -1.672166,0 -2.910416,-1.2065 -2.910416,-2.84692 0,-1.64041 1.23825,-2.84691 2.910416,-2.84691 0.814917,0 1.513417,0.27516 2.084917,0.87841 l 0.687917,-0.66675 c -0.677334,-0.762 -1.672167,-1.15358 -2.815167,-1.15358 -2.25425,0 -3.926417,1.59808 -3.926417,3.78883 0,2.19075 1.672167,3.78884 3.915834,3.78884 z"
             inkscape:export-xdpi="265.39999"
             inkscape:export-ydpi="265.39999" />
          <path
             inkscape:connector-curvature="0"
             id="path5075-7-2-3-2"
             style="font-style:normal;font-variant:normal;font-weight:500;font-stretch:normal;font-size:medium;line-height:1.25;font-family:Montserrat;-inkscape-font-specification:'Montserrat Medium';letter-spacing:0px;word-spacing:0px;fill:#ff7825;fill-opacity:1;stroke:none;stroke-width:0.23642653"
             d="m -57.418164,196.1024 c 1.68275,0 2.910416,-1.19592 2.910416,-2.86808 0,-1.67217 -1.227666,-2.8575 -2.910416,-2.8575 -1.68275,0 -2.921,1.18533 -2.921,2.8575 0,1.67216 1.23825,2.86808 2.921,2.86808 z m 0,-0.889 c -1.0795,0 -1.894417,-0.78317 -1.894417,-1.97908 0,-1.19592 0.814917,-1.9685 1.894417,-1.9685 1.0795,0 1.883833,0.77258 1.883833,1.9685 0,1.19591 -0.804333,1.97908 -1.883833,1.97908 z"
             inkscape:export-xdpi="265.39999"
             inkscape:export-ydpi="265.39999" />
          <path
             inkscape:connector-curvature="0"
             id="path5077-6-2-6-9"
             style="font-style:normal;font-weight:normal;font-size:medium;line-height:1.25;font-family:sans-serif;letter-spacing:-0.51858336px;word-spacing:0px;fill:#ff7825;fill-opacity:1;stroke:none;stroke-width:0.23642653"
             d="m -48.826978,188.18607 v 3.09033 c -0.465666,-0.60325 -1.164166,-0.89958 -1.957916,-0.89958 -1.640417,0 -2.836334,1.143 -2.836334,2.8575 0,1.7145 1.195917,2.86808 2.836334,2.86808 0.8255,0 1.545166,-0.3175 2.00025,-0.9525 v 0.889 h 0.973666 v -7.85283 z m -1.87325,7.02733 c -1.0795,0 -1.894416,-0.78317 -1.894416,-1.97908 0,-1.19592 0.814916,-1.9685 1.894416,-1.9685 1.068917,0 1.883834,0.77258 1.883834,1.9685 0,1.19591 -0.814917,1.97908 -1.883834,1.97908 z"
             inkscape:export-xdpi="265.39999"
             inkscape:export-ydpi="265.39999" />
          <path
             inkscape:connector-curvature="0"
             id="path5079-4-4-8-9"
             style="font-style:normal;font-weight:normal;font-size:medium;line-height:1.25;font-family:sans-serif;letter-spacing:0.26458332px;word-spacing:0px;fill:#ff7825;fill-opacity:1;stroke:none;stroke-width:0.23642653"
             d="m -41.337782,193.26607 c 0,-1.72509 -1.153583,-2.88925 -2.772833,-2.88925 -1.61925,0 -2.815167,1.19591 -2.815167,2.8575 0,1.67216 1.2065,2.86808 3.01625,2.86808 0.931334,0 1.703917,-0.3175 2.211917,-0.91017 l -0.560917,-0.65616 c -0.41275,0.45508 -0.963083,0.67733 -1.61925,0.67733 -1.11125,0 -1.905,-0.65617 -2.032,-1.64042 h 4.550833 c 0.01058,-0.0952 0.02117,-0.22225 0.02117,-0.30691 z m -2.772833,-2.032 c 0.98425,0 1.693333,0.66675 1.799167,1.60866 h -3.598334 c 0.105834,-0.9525 0.8255,-1.60866 1.799167,-1.60866 z"
             inkscape:export-xdpi="265.39999"
             inkscape:export-ydpi="265.39999" />
        </g>
      </g>
      <g
         transform="matrix(0.89358062,0,0,0.89358062,72.805067,-92.168666)"
         id="layer1-3"
         inkscape:label="Camada 1">
        <g
           style="stroke-width:0.89582312"
           inkscape:export-ydpi="1067.6328"
           inkscape:export-xdpi="1067.6328"
           inkscape:export-filename="/home/vitor/Black.png"
           id="g879-0-0-4"
           transform="matrix(0.1793518,0,0,0.1793518,-25.689406,241.16476)">
          <path
             sodipodi:nodetypes="zzzz"
             inkscape:connector-curvature="0"
             id="path858-2-8-1"
             d="m 65.982913,244.3391 c 0,-5.90359 -5.905932,-8.75301 -21.066591,0 -15.160659,8.75301 4.769799,11.16176 9.921817,11.31103 5.152018,0.14927 11.144774,-5.40744 11.144774,-11.31103 z"
             style="fill:#d4d4d4;fill-opacity:1;stroke:none;stroke-width:0.23701985px;stroke-linecap:butt;stroke-linejoin:miter;stroke-opacity:1" />
          <path
             sodipodi:nodetypes="czzczc"
             inkscape:connector-curvature="0"
             id="path856-1-1-0"
             d="m 33.915217,244.3391 v 29.69231 c 0,17.30789 32.067696,17.57182 32.067696,0 V 244.3391 c -6.817536,5.29542 -16.099831,5.09499 -20.982566,0 -4.882735,-5.09499 -11.08513,-11.17194 -11.08513,0 z"
             style="fill:#ffffff;fill-opacity:1;stroke:none;stroke-width:0.2373931;stroke-linecap:butt;stroke-linejoin:miter;stroke-miterlimit:4;stroke-dasharray:none;stroke-opacity:1" />
          <g
             style="fill:#ffffff;fill-opacity:1;stroke-width:0.89582312"
             transform="matrix(0.94855573,0,0,0.99998304,2.6307902,-3.241447)"
             id="g889-05-3-4">
            <ellipse
               style="fill:#ffffff;fill-opacity:1;stroke:none;stroke-width:0.24890588;stroke-linecap:round;stroke-linejoin:round;stroke-miterlimit:4;stroke-dasharray:none;stroke-opacity:1"
               id="path862-1-1-8"
               cx="42.397308"
               cy="234.45459"
               rx="4.8610744"
               ry="4.361074" />
          </g>
          <g
             style="fill:#d4d4d4;fill-opacity:1;stroke-width:0.89582312"
             id="g889-5-1-1-7"
             transform="matrix(0.82286335,0,0,0.85987993,23.394411,19.500105)">
            <ellipse
               style="fill:#d4d4d4;fill-opacity:1;stroke:none;stroke-width:0.24890588;stroke-linecap:round;stroke-linejoin:round;stroke-miterlimit:4;stroke-dasharray:none;stroke-opacity:1"
               id="path862-6-0-0-0"
               cx="42.397308"
               cy="234.45459"
               rx="4.8610744"
               ry="4.361074" />
          </g>
          <g
             style="fill:#c8c8c8;fill-opacity:1;stroke-width:0.89582312"
             id="g889-0-8-3-8"
             transform="matrix(0.61714751,0,0,0.71083408,21.149083,45.853544)">
            <ellipse
               style="fill:#c8c8c8;fill-opacity:1;stroke:none;stroke-width:0.24890588;stroke-linecap:round;stroke-linejoin:round;stroke-miterlimit:4;stroke-dasharray:none;stroke-opacity:1"
               id="path862-9-5-4-62"
               cx="42.397308"
               cy="234.45459"
               rx="4.8610744"
               ry="4.361074" />
            <text
               transform="scale(1.0732222,0.93177354)"
               id="text989-0-0-4"
               y="293.86661"
               x="-11.202062"
               style="font-style:normal;font-weight:normal;font-size:15.97878933px;line-height:1.25;font-family:sans-serif;letter-spacing:0px;word-spacing:0px;fill:#c8c8c8;fill-opacity:1;stroke:none;stroke-width:0.35785425"
               xml:space="preserve"><tspan
                 style="fill:#c8c8c8;fill-opacity:1;stroke-width:0.35785425"
                 y="308.00409"
                 x="-11.202062"
                 id="tspan987-6-3-7"
                 sodipodi:role="line" /></text>
          </g>
          <g
             transform="translate(0,-3.1750001)"
             id="text850-46-9-9"
             style="font-style:normal;font-weight:normal;font-size:10.58333302px;line-height:1.25;font-family:sans-serif;letter-spacing:0px;word-spacing:0px;fill:#ffffff;fill-opacity:1;stroke:none;stroke-width:0.23701985;stroke-opacity:1"
             aria-label="{">
            <path
               sodipodi:nodetypes="cccsccsscsscc"
               inkscape:connector-curvature="0"
               id="path852-2-1-3"
               style="font-style:normal;font-variant:normal;font-weight:normal;font-stretch:normal;font-family:'Cooper Hewitt';-inkscape-font-specification:'Cooper Hewitt';fill:#ffffff;fill-opacity:1;stroke:none;stroke-width:2.05227184;stroke-opacity:1"
               d="m 25.393322,218.89308 v 20.1602 c -1.119195,6.66339 -3.839569,6.84095 -7.880816,9.87879 4.399502,1.1079 7.880816,5.60789 7.880816,12.29747 v 20.1602 c 1.226472,9.74864 12.870421,14.44558 18.738987,10.44432 -5.406599,0 -12.324373,-5.6792 -12.324373,-13.19343 v -20.11888 c 0,-4.94843 -1.924386,-7.88085 -4.948419,-9.43871 3.024033,-1.46617 4.948419,-4.39859 4.948419,-9.43863 v -18.0022 c 0,-4.74547 1.871781,-12.30749 8.905245,-15.48674 -6.797964,-0.0778 -15.201639,4.99715 -15.319859,12.73761 z" />
          </g>
          <g
             id="text850-4-5-9-9"
             style="font-style:normal;font-weight:normal;font-size:10.58333302px;line-height:1.25;font-family:sans-serif;letter-spacing:0px;word-spacing:0px;fill:#ffffff;fill-opacity:1;stroke:none;stroke-width:0.23701985"
             aria-label="{"
             transform="rotate(-180,49.865841,248.51283)">
            <path
               sodipodi:nodetypes="cccsccsscsscc"
               inkscape:connector-curvature="0"
               id="path852-0-8-6-2"
               style="font-style:normal;font-variant:normal;font-weight:normal;font-stretch:normal;font-family:'Cooper Hewitt';-inkscape-font-specification:'Cooper Hewitt';fill:#ffffff;fill-opacity:1;stroke-width:2.05227184"
               d="m 26.451655,221.00975 v 22.27686 c -1.119195,6.66339 -3.839569,6.84095 -7.880816,9.87879 4.399502,1.1079 7.880816,5.60789 7.880816,12.29747 v 15.92687 c -0.0625,6.62797 7.297114,12.03853 14.505654,12.03182 -5.591677,-2.69391 -9.149373,-5.6792 -9.149373,-13.19343 v -17.47305 c 0,-4.94843 -1.924386,-7.88085 -4.948419,-9.43871 3.024033,-1.46617 4.948419,-4.39859 4.948419,-9.43863 v -21.1772 c 0,-7.08137 3.791793,-12.65631 10.341155,-13.59353 -9.208293,-1.98274 -15.618092,4.74542 -15.697436,11.90274 z" />
          </g>
        </g>
      </g>
    </g>
  </g>
</svg>
